<?xml version="1.0" encoding="UTF-8" standalone="no"?><!DOCTYPE svg PUBLIC "-//W3C//DTD SVG 1.1//EN" "http://www.w3.org/Graphics/SVG/1.1/DTD/svg11.dtd"><svg width="100%" height="100%" viewBox="0 0 1024 1024" version="1.1" xmlns="http://www.w3.org/2000/svg" xmlns:xlink="http://www.w3.org/1999/xlink" xml:space="preserve" xmlns:serif="http://www.serif.com/" fill="#ffffff" style="fill-rule:evenodd;clip-rule:evenodd;stroke-linejoin:round;stroke-miterlimit:2;"><g><g><path d="M282.398,339.639c12.256,18.559 20.135,35.192 23.637,49.9c3.502,14.707 4.027,27.489 1.576,38.344c-2.451,10.855 -7.266,20.135 -14.445,27.839c-7.179,7.704 -15.408,14.007 -24.687,18.909c-9.28,4.902 -18.734,8.404 -28.364,10.505c-9.63,2.101 -18.121,3.152 -25.475,3.152l-31.516,0l-98.749,-97.698l0,-247.923l72.486,0l0,269.984c0,12.606 2.364,24.95 7.091,37.031c4.727,12.081 11.468,22.499 20.223,31.253c3.502,0 23.111,0.525 27.314,0.525c9.455,0 18.121,-1.576 26,-4.727c7.879,-3.152 14.357,-7.266 19.435,-12.344c5.078,-5.078 8.317,-10.855 9.717,-17.334c1.401,-6.478 0.263,-13.044 -3.414,-19.697c-3.677,-6.653 -10.243,-13.132 -19.697,-19.435c-9.455,-6.303 -22.586,-11.906 -39.395,-16.808l78.264,-51.476Z" style="fill-rule:nonzero;"/><path d="M441.026,489.863c-19.96,-3.502 -37.994,-11.381 -54.102,-23.637c-16.108,-12.256 -29.415,-27.489 -39.92,-45.698c-10.505,-18.209 -17.684,-38.607 -21.536,-61.193c-3.852,-22.586 -3.677,-45.96 0.525,-70.122c4.202,-24.162 11.993,-46.223 23.374,-66.183c11.381,-19.96 25.037,-36.681 40.97,-50.162c15.933,-13.482 33.617,-23.199 53.051,-29.152c19.435,-5.953 39.132,-7.179 59.092,-3.677c20.31,3.502 38.519,11.381 54.627,23.637c16.108,12.256 29.327,27.489 39.657,45.698c10.33,18.209 17.421,38.607 21.273,61.193c3.852,22.586 3.677,45.96 -0.525,70.122c-4.202,24.162 -11.993,46.135 -23.374,65.92c-11.381,19.785 -25.037,36.418 -40.97,49.9c-15.933,13.482 -33.617,23.287 -53.051,29.415c-19.435,6.128 -39.132,7.441 -59.092,3.939Zm10.505,-339.318c-12.606,1.751 -23.111,7.966 -31.516,18.647c-8.404,10.68 -14.795,24.162 -19.172,40.445c-4.377,16.283 -6.828,34.492 -7.354,54.627c-0.525,20.135 0.525,40.445 3.152,60.93c2.626,20.485 6.828,40.27 12.606,59.354c5.778,19.084 12.869,35.893 21.273,50.425c8.404,14.532 18.034,25.825 28.889,33.879c10.855,8.054 22.586,11.206 35.192,9.455c12.606,-1.751 22.936,-7.966 30.99,-18.647c8.054,-10.68 14.182,-24.162 18.384,-40.445c4.202,-16.283 6.566,-34.492 7.091,-54.627c0.525,-20.135 -0.613,-40.445 -3.414,-60.93c-2.801,-20.485 -7.003,-40.27 -12.606,-59.354c-5.603,-19.084 -12.519,-35.893 -20.748,-50.425c-8.229,-14.532 -17.684,-25.825 -28.364,-33.879c-10.68,-8.054 -22.148,-11.206 -34.405,-9.455Z" style="fill-rule:nonzero;"/><path d="M754.607,489.863c-19.96,-3.502 -37.994,-11.381 -54.102,-23.637c-16.108,-12.256 -29.415,-27.489 -39.92,-45.698c-10.505,-18.209 -17.684,-38.607 -21.536,-61.193c-3.852,-22.586 -3.677,-45.96 0.525,-70.122c4.202,-24.162 11.993,-46.223 23.374,-66.183c11.381,-19.96 25.037,-36.681 40.97,-50.162c15.933,-13.482 33.617,-23.199 53.051,-29.152c19.435,-5.953 39.132,-7.179 59.092,-3.677c20.31,3.502 38.519,11.381 54.627,23.637c16.108,12.256 29.327,27.489 39.657,45.698c10.33,18.209 17.421,38.607 21.273,61.193c3.852,22.586 3.677,45.96 -0.525,70.122c-4.202,24.162 -11.993,46.135 -23.374,65.92c-11.381,19.785 -25.037,36.418 -40.97,49.9c-15.933,13.482 -33.617,23.287 -53.051,29.415c-19.435,6.128 -39.132,7.441 -59.092,3.939Zm10.505,-339.318c-12.606,1.751 -23.111,7.966 -31.516,18.647c-8.404,10.68 -14.795,24.162 -19.172,40.445c-4.377,16.283 -6.828,34.492 -7.354,54.627c-0.525,20.135 0.525,40.445 3.152,60.93c2.626,20.485 6.828,40.27 12.606,59.354c5.778,19.084 12.869,35.893 21.273,50.425c8.404,14.532 18.034,25.825 28.889,33.879c10.855,8.054 22.586,11.206 35.192,9.455c12.606,-1.751 22.936,-7.966 30.99,-18.647c8.054,-10.68 14.182,-24.162 18.384,-40.445c4.202,-16.283 6.566,-34.492 7.091,-54.627c0.525,-20.135 -0.613,-40.445 -3.414,-60.93c-2.801,-20.485 -7.003,-40.27 -12.606,-59.354c-5.603,-19.084 -12.519,-35.893 -20.748,-50.425c-8.229,-14.532 -17.684,-25.825 -28.364,-33.879c-10.68,-8.054 -22.148,-11.206 -34.405,-9.455Z" style="fill-rule:nonzero;"/></g></g><g><path d="M159.211,882.951l-74.836,0l0,-229.743c0,-31.051 11.339,-57.566 34.017,-79.546c10.816,-10.118 23.201,-18.317 37.157,-24.597c13.956,-6.28 28.783,-10.292 44.483,-12.037c13.258,-1.396 25.643,-1.57 37.157,-0.523l101.526,93.153c0.349,13.258 -1.57,24.597 -5.757,34.017c-4.187,9.42 -9.856,17.619 -17.008,24.597c-7.152,6.978 -15.526,13.083 -25.12,18.317c-9.594,5.233 -19.45,10.292 -29.568,15.177c-10.816,5.233 -22.154,11.077 -34.017,17.532c-11.862,6.454 -22.852,13.956 -32.97,22.503c-10.118,8.548 -18.491,18.753 -25.12,30.615c-6.629,11.862 -9.943,25.992 -9.943,42.39l0,48.147Zm71.173,-338.072c-10.118,-1.396 -19.538,0.262 -28.26,4.972c-8.722,4.71 -16.223,11.949 -22.503,21.718c-6.28,9.769 -11.252,21.631 -14.915,35.587c-3.663,13.956 -5.495,29.307 -5.495,46.053l0,142.87c4.536,-9.769 10.99,-19.45 19.363,-29.045c8.373,-9.594 19.363,-18.753 32.97,-27.475c10.816,-6.629 19.887,-15.962 27.213,-27.998c7.327,-12.037 13.083,-25.033 17.27,-38.988c4.187,-13.956 6.716,-28.173 7.588,-42.652c0.872,-14.479 0.262,-27.824 -1.832,-40.035c-2.093,-12.211 -5.757,-22.416 -10.99,-30.615c-5.233,-8.199 -12.037,-12.996 -20.41,-14.392Z" style="fill-rule:nonzero;"/><path d="M528.683,879.288c0.698,-2.791 2.268,-9.246 4.71,-19.363c2.442,-10.118 4.623,-21.457 6.542,-34.017c1.919,-12.56 3.14,-25.382 3.663,-38.465c0.523,-13.083 -0.785,-24.248 -3.925,-33.493c-3.14,-9.246 -8.548,-15.264 -16.223,-18.055c-7.676,-2.791 -18.666,-0.349 -32.97,7.327c-15.002,9.071 -27.824,20.759 -38.465,35.063c-10.641,14.304 -15.962,32.098 -15.962,53.38l0,48.147l-74.836,0l0,-265.853l115.656,-80.07c26.167,-2.791 48.844,-1.483 68.033,3.925c19.189,5.408 34.802,13.432 46.838,24.073c12.037,10.641 20.148,22.939 24.335,36.895c4.187,13.956 4.187,28.26 0,42.913c-4.187,14.653 -12.734,28.783 -25.643,42.39c-12.909,13.607 -30.353,25.12 -52.333,34.54l-10.467,4.71l39.25,36.11c16.747,15.7 29.743,33.929 38.988,54.688c9.246,20.759 13.868,42.652 13.868,65.678l-91.06,-0.523Zm-92.63,-86.35c4.536,-9.769 10.99,-19.363 19.363,-28.783c8.373,-9.42 19.363,-18.491 32.97,-27.213c10.816,-6.978 19.887,-16.398 27.213,-28.26c7.327,-11.862 13.083,-24.771 17.27,-38.727c4.187,-13.956 6.716,-28.26 7.588,-42.913c0.872,-14.653 0.262,-28.085 -1.832,-40.297c-2.093,-12.211 -5.757,-22.416 -10.99,-30.615c-5.233,-8.199 -12.037,-12.996 -20.41,-14.392c-10.118,-1.396 -19.538,0.262 -28.26,4.972c-8.722,4.71 -16.223,11.949 -22.503,21.718c-6.28,9.769 -11.252,21.631 -14.915,35.587c-3.663,13.956 -5.495,29.307 -5.495,46.053l0,142.87Z" style="fill-rule:nonzero;"/><path d="M760.519,883.998c-19.887,-3.489 -37.854,-11.339 -53.903,-23.55c-16.049,-12.211 -29.307,-27.388 -39.773,-45.53c-10.467,-18.142 -17.619,-38.465 -21.457,-60.968c-3.838,-22.503 -3.663,-45.792 0.523,-69.865c4.187,-24.073 11.949,-46.053 23.288,-65.94c11.339,-19.887 24.945,-36.546 40.82,-49.978c15.874,-13.432 33.493,-23.114 52.857,-29.045c19.363,-5.931 38.988,-7.152 58.875,-3.663c20.235,3.489 38.378,11.339 54.427,23.55c16.049,12.211 29.219,27.388 39.512,45.53c10.292,18.142 17.357,38.465 21.195,60.968c3.838,22.503 3.663,45.792 -0.523,69.865c-4.187,24.073 -11.949,45.966 -23.288,65.678c-11.339,19.712 -24.945,36.284 -40.82,49.717c-15.874,13.432 -33.493,23.201 -52.857,29.307c-19.363,6.106 -38.988,7.414 -58.875,3.925Zm10.467,-338.072c-12.56,1.744 -23.027,7.937 -31.4,18.578c-8.373,10.641 -14.741,24.073 -19.102,40.297c-4.361,16.223 -6.803,34.365 -7.327,54.427c-0.523,20.061 0.523,40.297 3.14,60.706c2.617,20.41 6.803,40.122 12.56,59.136c5.757,19.014 12.822,35.761 21.195,50.24c8.373,14.479 17.968,25.73 28.783,33.755c10.816,8.024 22.503,11.164 35.063,9.42c12.56,-1.744 22.852,-7.937 30.877,-18.578c8.024,-10.641 14.13,-24.073 18.317,-40.297c4.187,-16.223 6.542,-34.365 7.065,-54.427c0.523,-20.061 -0.611,-40.297 -3.402,-60.706c-2.791,-20.41 -6.978,-40.122 -12.56,-59.136c-5.582,-19.014 -12.473,-35.761 -20.672,-50.24c-8.199,-14.479 -17.619,-25.73 -28.26,-33.755c-10.641,-8.024 -22.067,-11.164 -34.278,-9.42Z" style="fill-rule:nonzero;"/></g></svg>